<svg width="146" height="132" viewBox="0 0 146 132" fill="none" xmlns="http://www.w3.org/2000/svg">
<path d="M0 111.401C0 110.04 0.248669 108.757 0.746006 107.554C1.26247 106.351 1.95109 105.305 2.81187 104.418C3.67265 103.53 4.68645 102.83 5.85328 102.317C7.02011 101.784 8.26346 101.518 9.58331 101.518C10.884 101.518 12.1083 101.784 13.256 102.317C14.4228 102.83 15.4366 103.53 16.2974 104.418C17.1581 105.305 17.8372 106.351 18.3345 107.554C18.851 108.757 19.1092 110.04 19.1092 111.401C19.1092 112.742 18.851 114.014 18.3345 115.218C17.8372 116.401 17.1581 117.437 16.2974 118.324C15.4366 119.212 14.4228 119.922 13.256 120.455C12.1083 120.968 10.884 121.224 9.58331 121.224C8.26346 121.224 7.02011 120.968 5.85328 120.455C4.68645 119.922 3.67265 119.212 2.81187 118.324C1.95109 117.437 1.26247 116.401 0.746006 115.218C0.248669 114.014 0 112.742 0 111.401Z" fill="#3980AA"/>
<path d="M61.4335 33.0656C62.0749 26.7091 63.7953 21.4023 66.5945 17.1451C69.3937 12.888 72.8635 9.50563 77.004 6.99801C81.1445 4.43207 85.7515 2.62425 90.8251 1.57455C95.8987 0.524851 101.031 0 106.221 0C110.478 0 114.648 0.17495 118.73 0.524851C122.812 0.874751 126.573 1.28297 130.014 1.7495C133.455 2.21604 136.429 2.68257 138.936 3.14911C141.444 3.61564 143.281 3.96554 144.447 4.19881C145.147 4.37376 145.497 4.6945 145.497 5.16103C145.497 5.27767 145.439 5.62757 145.322 6.21074L144.01 12.5089C143.893 12.9172 143.718 13.1796 143.485 13.2962C143.31 13.3545 143.135 13.3837 142.96 13.3837C140.394 13.3837 138.178 13.8211 136.312 14.6958C134.446 15.5706 132.901 16.7952 131.676 18.3698C130.451 19.9443 129.518 21.8105 128.877 23.9682C128.235 26.1259 127.798 28.4586 127.565 30.9662L122.316 94.5606C121.85 99.6925 120.537 104.533 118.38 109.082C116.222 113.63 113.219 117.596 109.37 120.978C105.521 124.361 100.797 127.043 95.1989 129.026C89.6005 131.009 83.1856 132 75.9543 132C71.114 132 66.4487 131.767 61.9583 131.3C57.4679 130.834 53.3857 130.28 49.7118 129.638C46.0378 128.997 42.8596 128.384 40.177 127.801C37.5527 127.16 35.6574 126.693 34.4911 126.402C33.7913 126.227 33.4414 125.906 33.4414 125.439C33.4414 125.381 33.4997 125.06 33.6164 124.477L35.1034 117.829C35.2201 117.421 35.3659 117.188 35.5408 117.129C35.7741 117.013 35.9782 116.954 36.1531 116.954C38.7191 116.954 41.0809 116.575 43.2386 115.817C45.4547 115.059 47.3791 113.805 49.012 112.056C50.6449 110.306 51.9861 108.032 53.0358 105.233C54.1439 102.433 54.902 98.9927 55.3102 94.9105L61.4335 33.0656Z" fill="#3980AA"/>
</svg>
