<svg width="148" height="134" viewBox="0 0 148 134" fill="none" xmlns="http://www.w3.org/2000/svg">
<path d="M10.583 102.018C11.9505 102.018 13.2435 102.298 14.4561 102.859H14.457C15.6812 103.397 16.7491 104.134 17.6562 105.07C18.5632 106.005 19.2767 107.104 19.7969 108.363H19.7959C20.3386 109.629 20.6094 110.977 20.6094 112.401C20.6094 113.807 20.3376 115.144 19.7949 116.41C19.2745 117.649 18.5619 118.738 17.6562 119.672C16.7506 120.606 15.685 121.352 14.4639 121.909L14.46 121.911C13.2458 122.454 11.9515 122.724 10.583 122.724C9.19656 122.724 7.88473 122.454 6.65234 121.912L6.64551 121.909C5.42428 121.352 4.35881 120.606 3.45312 119.672C2.54886 118.74 1.82742 117.653 1.28809 116.417L1.28418 116.408C0.761064 115.143 0.500003 113.805 0.5 112.401C0.5 110.977 0.76068 109.629 1.28418 108.363L1.28613 108.357C1.8252 107.101 2.54747 106.004 3.45312 105.07C4.35869 104.136 5.42409 103.399 6.64551 102.862C7.87934 102.298 9.19376 102.018 10.583 102.018Z" stroke="#3980AA"/>
<path d="M107.221 0.5C111.492 0.5 115.676 0.675203 119.772 1.02637C123.861 1.37684 127.631 1.7861 131.081 2.25391C134.527 2.72118 137.51 3.18877 140.028 3.65723C141.282 3.89047 142.369 4.09536 143.288 4.27051L145.546 4.70898L145.557 4.71094L145.568 4.71387C145.961 4.81191 146.312 4.96376 146.572 5.20215C146.848 5.45535 146.997 5.78496 146.997 6.16113C146.997 6.26781 146.974 6.42534 146.946 6.59277C146.916 6.77532 146.871 7.01484 146.812 7.30859L146.812 7.3125L145.499 13.6113L145.496 13.6289L145.491 13.6465C145.36 14.1074 145.127 14.5338 144.709 14.7432L144.677 14.7598L144.644 14.7705C144.42 14.8449 144.192 14.8838 143.96 14.8838C141.45 14.8838 139.31 15.3115 137.524 16.1484C135.727 16.9908 134.245 18.1666 133.07 19.6768C131.889 21.1962 130.982 23.0049 130.356 25.1104C129.725 27.2333 129.293 29.5339 129.062 32.0127L123.814 95.6016V95.6055C123.343 100.795 122.015 105.693 119.831 110.296C117.644 114.907 114.599 118.927 110.7 122.354C106.797 125.784 102.015 128.496 96.3662 130.497C90.704 132.502 84.2303 133.5 76.9541 133.5C72.0979 133.5 67.4149 133.266 62.9062 132.798C58.4069 132.33 54.3132 131.775 50.626 131.131C46.9475 130.489 43.7615 129.875 41.0703 129.29L41.0586 129.287C38.4345 128.646 36.5378 128.179 35.3701 127.887C34.978 127.789 34.6263 127.637 34.3662 127.398C34.09 127.145 33.9414 126.816 33.9414 126.439C33.9414 126.379 33.9521 126.309 33.958 126.271C33.9663 126.217 33.9782 126.147 33.9932 126.065C34.0231 125.901 34.0675 125.671 34.126 125.379L34.1279 125.368L35.6152 118.72L35.6191 118.706L35.623 118.691C35.688 118.464 35.7688 118.255 35.876 118.083C35.973 117.928 36.1178 117.764 36.3281 117.677C36.5962 117.544 36.8758 117.454 37.1533 117.454C39.6696 117.454 41.9749 117.083 44.0732 116.346L44.0771 116.344C46.2135 115.613 48.0685 114.405 49.6465 112.715C51.225 111.024 52.5352 108.809 53.5674 106.057L53.5713 106.049C54.6574 103.305 55.4073 99.9119 55.8125 95.8604L61.9355 34.0166V34.0156C62.5831 27.5989 64.3235 22.2095 67.1768 17.8701C70.0146 13.5543 73.5377 10.1185 77.7451 7.57031C81.9373 4.97307 86.5982 3.14541 91.7236 2.08496C96.8306 1.02835 101.997 0.500002 107.221 0.5Z" stroke="#3980AA"/>
</svg>
